# xmcd
#
# Track frame offsets: 
#        150
#        14697
#        27565
#        43030
#        58205
#        72487
#        84242
#        98170
#        112660
#        127362
#        141482
#        157380
#
# Disc length: 2250 seconds
#
# Revision: 0
# Processed by: cddbd v1.5.2PL0 Copyright (c) Steve Scherf et al.
# Submitted via: ExactAudioCopy v1.0b3
#
DISCID=b608c80c
DTITLE=龙飘飘 - 龙腔雅韵Vol.1 美酒加咖啡
DYEAR=1984
DGENRE=Acid
TTITLE0=美酒加咖啡
TTITLE1=为什么离开我
TTITLE2=最后的夜快车
TTITLE3=晚风
TTITLE4=无情火车
TTITLE5=爱情如水向东流
TTITLE6=昨夜梦见你
TTITLE7=心上人
TTITLE8=丢不了的情意
TTITLE9=后悔爱上你
TTITLE10=那个人就是我
TTITLE11=忆往事
EXTD=
EXTT0=
EXTT1=
EXTT2=
EXTT3=
EXTT4=
EXTT5=
EXTT6=
EXTT7=
EXTT8=
EXTT9=
EXTT10=
EXTT11=
PLAYORDER=
